HIERARCHY
ROOT Hips
{
    OFFSET   0.000000   0.000000   0.000000
    CHANNELS 6 Xposition Yposition Zposition Zrotation Xrotation Yrotation
    JOINT Chest
    {
        OFFSET   0.000000   8.007240   0.000000
        CHANNELS 3 Zrotation Xrotation Yrotation
        JOINT Chest2
        {
            OFFSET   0.000000  22.077100   0.000000
            CHANNELS 3 Zrotation Xrotation Yrotation
            JOINT Neck
            {
                OFFSET   0.000000  23.254800   0.000000
                CHANNELS 3 Zrotation Xrotation Yrotation
                JOINT Head
                {
                    OFFSET   0.000000  14.370000   1.956600
                    CHANNELS 3 Zrotation Xrotation Yrotation
                    End Site
                    {
                        OFFSET   0.000000  19.566000   0.000000
                    }
                }
            }
            JOINT LeftCollar
            {
                OFFSET   3.911900  19.017000  -0.467064
                CHANNELS 3 Zrotation Xrotation Yrotation
                JOINT LeftShoulder
                {
                    OFFSET  10.383700   0.000000   0.000000
                    CHANNELS 3 Zrotation Xrotation Yrotation
                    JOINT LeftElbow
                    {
                        OFFSET  26.662100   0.001476   0.000517
                        CHANNELS 3 Zrotation Xrotation Yrotation
                        JOINT LeftWrist
                        {
                            OFFSET  28.869000  -0.000025  -0.000106
                            CHANNELS 3 Zrotation Xrotation Yrotation
                            JOINT LeftFinger0
                            {
                                OFFSET   2.044660  -2.323460   3.252850
                                CHANNELS 3 Zrotation Xrotation Yrotation
                                JOINT LeftFinger01
                                {
                                    OFFSET   3.088130   0.000000   0.000000
                                    CHANNELS 3 Zrotation Xrotation Yrotation
                                    JOINT LeftFinger02
                                    {
                                        OFFSET   2.639460   0.000000   0.000000
                                        CHANNELS 3 Zrotation Xrotation Yrotation
                                        End Site
                                        {
                                            OFFSET   2.582190   0.000000   0.000000
                                        }
                                    }
                                }
                            }
                            JOINT LeftFinger1
                            {
                                OFFSET   8.364480   0.000000   3.252850
                                CHANNELS 3 Zrotation Xrotation Yrotation
                                JOINT LeftFinger11
                                {
                                    OFFSET   4.646930   0.000000   0.000000
                                    CHANNELS 3 Zrotation Xrotation Yrotation
                                    JOINT LeftFinger12
                                    {
                                        OFFSET   2.323460   0.000000   0.000000
                                        CHANNELS 3 Zrotation Xrotation Yrotation
                                        End Site
                                        {
                                            OFFSET   2.273050   0.000000   0.000000
                                        }
                                    }
                                }
                            }
                            JOINT LeftFinger2
                            {
                                OFFSET   8.364490   0.000015   1.078090
                                CHANNELS 3 Zrotation Xrotation Yrotation
                                JOINT LeftFinger21
                                {
                                    OFFSET   5.111620   0.000000   0.000000
                                    CHANNELS 3 Zrotation Xrotation Yrotation
                                    JOINT LeftFinger22
                                    {
                                        OFFSET   2.788160   0.000016   0.000000
                                        CHANNELS 3 Zrotation Xrotation Yrotation
                                        End Site
                                        {
                                            OFFSET   2.727660   0.000000   0.000000
                                        }
                                    }
                                }
                            }
                            JOINT LeftFinger3
                            {
                                OFFSET   7.899780   0.000017  -1.078090
                                CHANNELS 3 Zrotation Xrotation Yrotation
                                JOINT LeftFinger31
                                {
                                    OFFSET   4.646930   0.000000   0.000000
                                    CHANNELS 3 Zrotation Xrotation Yrotation
                                    JOINT LeftFinger32
                                    {
                                        OFFSET   2.323470   0.000000   0.000000
                                        CHANNELS 3 Zrotation Xrotation Yrotation
                                        End Site
                                        {
                                            OFFSET   2.273050   0.000000   0.000000
                                        }
                                    }
                                }
                            }
                            JOINT LeftFinger4
                            {
                                OFFSET   7.435090   0.000000  -3.252850
                                CHANNELS 3 Zrotation Xrotation Yrotation
                                JOINT LeftFinger41
                                {
                                    OFFSET   3.717550   0.000000   0.000000
                                    CHANNELS 3 Zrotation Xrotation Yrotation
                                    JOINT LeftFinger42
                                    {
                                        OFFSET   1.858770   0.000000   0.000000
                                        CHANNELS 3 Zrotation Xrotation Yrotation
                                        End Site
                                        {
                                            OFFSET   1.818440   0.000000   0.000000
                                        }
                                    }
                                }
                            }
                        }
                    }
                }
            }
            JOINT RightCollar
            {
                OFFSET  -3.911900  19.017000  -0.467063
                CHANNELS 3 Zrotation Xrotation Yrotation
                JOINT RightShoulder
                {
                    OFFSET -10.383700   0.000019   0.000000
                    CHANNELS 3 Zrotation Xrotation Yrotation
                    JOINT RightElbow
                    {
                        OFFSET -26.662100   0.001175   0.000102
                        CHANNELS 3 Zrotation Xrotation Yrotation
                        JOINT RightWrist
                        {
                            OFFSET -28.869000   0.000016  -0.000079
                            CHANNELS 3 Zrotation Xrotation Yrotation
                            JOINT RightFinger0
                            {
                                OFFSET  -2.044660  -2.323490   3.252850
                                CHANNELS 3 Zrotation Xrotation Yrotation
                                JOINT RightFinger01
                                {
                                    OFFSET  -3.088140   0.000000   0.000000
                                    CHANNELS 3 Zrotation Xrotation Yrotation
                                    JOINT RightFinger02
                                    {
                                        OFFSET  -2.639460   0.000000   0.000000
                                        CHANNELS 3 Zrotation Xrotation Yrotation
                                        End Site
                                        {
                                            OFFSET  -2.582190   0.000000   0.000000
                                        }
                                    }
                                }
                            }
                            JOINT RightFinger1
                            {
                                OFFSET  -8.364480   0.000000   3.252850
                                CHANNELS 3 Zrotation Xrotation Yrotation
                                JOINT RightFinger11
                                {
                                    OFFSET  -4.646930   0.000000   0.000000
                                    CHANNELS 3 Zrotation Xrotation Yrotation
                                    JOINT RightFinger12
                                    {
                                        OFFSET  -2.323470   0.000000   0.000000
                                        CHANNELS 3 Zrotation Xrotation Yrotation
                                        End Site
                                        {
                                            OFFSET  -2.273050   0.000000   0.000000
                                        }
                                    }
                                }
                            }
                            JOINT RightFinger2
                            {
                                OFFSET  -8.364480   0.000000   1.078090
                                CHANNELS 3 Zrotation Xrotation Yrotation
                                JOINT RightFinger21
                                {
                                    OFFSET  -5.111620   0.000000   0.000000
                                    CHANNELS 3 Zrotation Xrotation Yrotation
                                    JOINT RightFinger22
                                    {
                                        OFFSET  -2.788160   0.000000   0.000000
                                        CHANNELS 3 Zrotation Xrotation Yrotation
                                        End Site
                                        {
                                            OFFSET  -2.727660   0.000000   0.000000
                                        }
                                    }
                                }
                            }
                            JOINT RightFinger3
                            {
                                OFFSET  -7.899780   0.000000  -1.078090
                                CHANNELS 3 Zrotation Xrotation Yrotation
                                JOINT RightFinger31
                                {
                                    OFFSET  -4.646930   0.000000   0.000000
                                    CHANNELS 3 Zrotation Xrotation Yrotation
                                    JOINT RightFinger32
                                    {
                                        OFFSET  -2.323470   0.000000   0.000000
                                        CHANNELS 3 Zrotation Xrotation Yrotation
                                        End Site
                                        {
                                            OFFSET  -2.273050   0.000000   0.000000
                                        }
                                    }
                                }
                            }
                            JOINT RightFinger4
                            {
                                OFFSET  -7.435090   0.000000  -3.252850
                                CHANNELS 3 Zrotation Xrotation Yrotation
                                JOINT RightFinger41
                                {
                                    OFFSET  -3.717550   0.000000   0.000000
                                    CHANNELS 3 Zrotation Xrotation Yrotation
                                    JOINT RightFinger42
                                    {
                                        OFFSET  -1.858770   0.000000   0.000000
                                        CHANNELS 3 Zrotation Xrotation Yrotation
                                        End Site
                                        {
                                            OFFSET  -1.818440   0.000000   0.000000
                                        }
                                    }
                                }
                            }
                        }
                    }
                }
            }
        }
    }
    JOINT LeftHip
    {
        OFFSET   9.783040   0.000000   0.000000
        CHANNELS 3 Zrotation Xrotation Yrotation
        JOINT LeftKnee
        {
            OFFSET   0.000032 -41.789100  -0.002222
            CHANNELS 3 Zrotation Xrotation Yrotation
            JOINT LeftAnkle
            {
                OFFSET   0.000087 -41.133200  -0.000135
                CHANNELS 3 Zrotation Xrotation Yrotation
                JOINT LeftToe
                {
                    OFFSET   0.000000  -6.358960  14.674500
                    CHANNELS 3 Zrotation Xrotation Yrotation
                    End Site
                    {
                        OFFSET   0.000000   0.000000   3.913200
                    }
                }
            }
        }
    }
    JOINT RightHip
    {
        OFFSET  -9.783040   0.000000   0.000000
        CHANNELS 3 Zrotation Xrotation Yrotation
        JOINT RightKnee
        {
            OFFSET   0.000047 -41.789100  -0.000896
            CHANNELS 3 Zrotation Xrotation Yrotation
            JOINT RightAnkle
            {
                OFFSET  -0.000117 -41.133300  -0.000248
                CHANNELS 3 Zrotation Xrotation Yrotation
                JOINT RightToe
                {
                    OFFSET   0.000000  -6.358970  14.674500
                    CHANNELS 3 Zrotation Xrotation Yrotation
                    End Site
                    {
                        OFFSET   0.000000   0.000000   3.913200
                    }
                }
            }
        }
    }
}
MOTION
Frames: 4
Frame Time:   0.016667
 -0.435662  89.547700  -0.781743  -1.537510  -4.034510   4.073100   1.110620   3.065710  -0.858476   2.272050   6.113820  -1.780210   1.806080   0.176400  -0.002148   2.967110   0.356479   3.591370  -5.747830   2.339600   0.315378 -67.801200  18.714600  -6.320340  -3.138310  -8.211580  -9.241650   5.814920 -11.625900  10.058700  36.716300  26.859100 -69.544600 -13.024500   0.006374   0.004403  -1.518860   0.004463   0.002297 -31.837800   6.270910  -9.976870 -26.497400   0.003245   0.000000 -18.548200   0.002223  -0.001216 -28.462000   3.967220  -7.271950 -39.441400  -0.003409  -0.001839 -26.268000   0.002224  -0.001231 -28.759200   0.602245  -1.097140 -40.739100   0.001220  -0.001618 -27.132200   0.001968  -0.001069 -39.083000  -0.813825   1.001630 -58.635200   0.001499  -0.012251 -39.051000   0.002098   0.000259   6.582360  -0.929548   7.284850  69.476800   7.391400  -1.239650   1.589080  -6.901470   5.142070 -10.999900  -3.087840   4.277400 -45.571100  47.161600  90.782100  30.622700   0.001425  -0.002749  10.311300  -0.001209  -0.004123  37.815500   6.953330   8.864740  31.374400   0.003974  -0.000479  21.962100  -0.000175  -0.001637  30.509300   0.578554   0.982084  45.770500   0.007110  -0.000833  30.483100  -0.007528  -0.006789  31.159300  -2.069890  -3.417520  46.831200   0.009056  -0.001899  31.189600   0.000731  -0.005166  44.963800  -2.825620  -2.825070  67.549800   0.000000  -0.012003  44.988100  -0.008201  -0.008757   2.012230   6.033380   1.752990   0.928712   0.788765  13.276300  -2.838240  -2.131460   2.072430  -0.000000   0.000000   0.000000   1.969450   1.843000   1.628020   0.975433   5.342870  -3.591800  -4.648870  -2.395280  -7.054550   0.000000   0.000000  -0.000000
 -0.460163  89.547700  -0.797391  -1.537940  -4.051200   4.123250   1.112140   3.077300  -0.855421   2.275150   6.137020  -1.774580   1.833780   0.157482  -0.002198   3.012630   0.318214   3.531620  -5.754630   2.332360   0.317958 -67.803700  18.730900  -6.333720  -3.139230  -8.223440  -9.241920   5.816970 -11.613700  10.055100  36.719700  26.856800 -69.534300 -13.019700   0.006373   0.004396  -1.513180   0.004463   0.002297 -31.835400   6.261230  -9.963830 -26.494200   0.003245   0.000000 -18.546000   0.002221  -0.001215 -28.461400   3.969540  -7.276630 -39.412900  -0.003408  -0.001837 -26.249000   0.002225  -0.001230 -28.759100   0.604766  -1.101780 -40.713400   0.001219  -0.001614 -27.115100   0.001968  -0.001065 -39.069000  -0.813936   1.001750 -58.614400   0.001500  -0.012253 -39.037100   0.002098   0.000258   6.601870  -0.961633   7.302960  69.462900   7.400940  -1.239410   1.595690  -6.936890   5.114650 -11.003900  -3.081300   4.277380 -45.594700  47.174300  90.814400  30.609300   0.001423  -0.002741  10.304600  -0.001207  -0.004136  37.814500   6.956140   8.869090  31.374200   0.003970  -0.000477  21.961900  -0.000176  -0.001630  30.508600   0.598733   1.016270  45.770500   0.007105  -0.000831  30.483100  -0.007531  -0.006783  31.164400  -2.071350  -3.419660  46.839100   0.009061  -0.001877  31.194900   0.000727  -0.005163  44.970600  -2.827640  -2.826720  67.560300   0.000000  -0.012003  44.995100  -0.008200  -0.008756   2.016620   6.030670   1.736440   0.934076   0.784795  13.246300  -2.854560  -2.104550   2.070490   0.000000   0.000000  -0.000000   2.042190   1.841690   1.634630   0.909118   5.371080  -3.645090  -4.648800  -2.404430  -7.063170   0.000000   0.000000  -0.000000
 -0.502166  89.547800  -0.823196  -1.540710  -4.081460   4.208600   1.116500   3.098660  -0.852374   2.284130   6.179740  -1.769020   1.880810   0.124268  -0.002248   3.089860   0.250996   3.438820  -5.767160   2.318050   0.325435 -67.812200  18.755300  -6.357060  -3.139410  -8.240870  -9.242320   5.819650 -11.596700  10.048400  36.722600  26.855600 -69.522900 -13.015000   0.006368   0.004378  -1.507500   0.004463   0.002298 -31.833200   6.251600  -9.948600 -26.490900   0.003245   0.000000 -18.543700   0.002217  -0.001213 -28.460900   3.971860  -7.281320 -39.384400  -0.003405  -0.001831 -26.230000   0.002226  -0.001226 -28.759100   0.607288  -1.106420 -40.687700   0.001219  -0.001602 -27.098000   0.001968  -0.001057 -39.055000  -0.814092   1.001930 -58.593500   0.001501  -0.012260 -39.023200   0.002097   0.000257   6.633000  -1.018610   7.333360  69.438700   7.419080  -1.237620   1.609950  -6.995410   5.039560 -11.013300  -3.062500   4.277310 -45.618600  47.194000  90.847000  30.595900   0.001417  -0.002726  10.297900  -0.001205  -0.004159  37.813500   6.958950   8.873440  31.373800   0.003963  -0.000469  21.961700  -0.000180  -0.001609  30.507900   0.618911   1.050450  45.770400   0.007091  -0.000824  30.483100  -0.007542  -0.006767  31.172200  -2.079270  -3.432170  46.851700   0.009076  -0.001826  31.203300   0.000717  -0.005157  44.980700  -2.838440  -2.836870  67.576500   0.000000  -0.012005  45.005900  -0.008197  -0.008754   2.026350   6.028000   1.706380   0.942095   0.770428  13.200800  -2.879150  -2.055920   2.063370   0.000000   0.000000   0.000000   2.167960   1.832560   1.647710   0.797493   5.438360  -3.742540  -4.648760  -2.430230  -7.071870  -0.000000   0.000000  -0.000000
 -0.538016  89.547800  -0.842967  -1.548250  -4.109450   4.281760   1.124080   3.119380  -0.852442   2.299690   6.221070  -1.769470   1.920370   0.094275  -0.002230   3.154850   0.190196   3.377480  -5.779990   2.300920   0.338846 -67.829200  18.771400  -6.377680  -3.135600  -8.251250  -9.242590   5.820630 -11.590000  10.042200  36.720300  26.869200 -69.539100 -13.019100   0.006357   0.004347  -1.509540   0.004472   0.002298 -31.841600   6.253720  -9.947180 -26.497800   0.003246   0.000000 -18.548500   0.002206  -0.001208 -28.461600   3.969550  -7.276890 -39.397200  -0.003400  -0.001821 -26.238500   0.002225  -0.001219 -28.759300   0.603032  -1.098650 -40.697300   0.001219  -0.001584 -27.104400   0.001968  -0.001045 -39.058000  -0.814159   1.002000 -58.598000   0.001502  -0.012272 -39.026200   0.002097   0.000257   6.658430  -1.074690   7.364400  69.405000   7.430800  -1.183710   1.630210  -7.036250   4.925450 -11.027600  -3.036770   4.269860 -45.610200  47.202600  90.835400  30.629900   0.001405  -0.002715  10.315000  -0.001205  -0.004178  37.815400   6.938470   8.847150  31.373700   0.003957  -0.000451  21.961600  -0.000191  -0.001570  30.508100   0.611740   1.038240  45.770500   0.007068  -0.000807  30.483100  -0.007560  -0.006741  31.175700  -2.099420  -3.464910  46.858800   0.009101  -0.001748  31.208000   0.000700  -0.005148  44.983900  -2.865690  -2.863770  67.583300   0.000000  -0.012006  45.010500  -0.008192  -0.008752   2.040010   6.036840   1.675870   0.948947   0.739176  13.174900  -2.893130  -2.007070   2.048800  -0.000000   0.000000   0.000000   2.277870   1.810210   1.656030   0.705671   5.530910  -3.838120  -4.647160  -2.471290  -7.070260   0.000000   0.000000   0.000000
